<?xml version="1.0" encoding="utf-8"?>
<!-- Generator: Adobe Illustrator 23.0.2, SVG Export Plug-In . SVG Version: 6.00 Build 0)  -->
<svg version="1.1" id="Слой_1" xmlns="http://www.w3.org/2000/svg" xmlns:xlink="http://www.w3.org/1999/xlink" x="0px" y="0px"
	 viewBox="0 0 2500 2500" style="enable-background:new 0 0 2500 2500;" xml:space="preserve">
<style type="text/css">
	.st0{fill:#FFFFFF;}
</style>
<path class="st0" d="M0,1250c0-226.7,55.8-435.8,167.5-627.5c111.7-191.7,263.3-343.3,455-455C814.2,55.8,1023.3,0,1250,0
	c226.7,0,435.8,55.8,627.5,167.5c191.7,111.7,343.3,263.3,455,455C2444.2,814.2,2500,1023.3,2500,1250s-55.8,435.8-167.5,627.5
	c-111.7,191.7-263.3,343.3-455,455C1685.8,2444.2,1476.7,2500,1250,2500c-226.7,0-435.8-55.8-627.5-167.5
	c-191.7-111.7-343.3-263.3-455-455C55.8,1685.8,0,1476.7,0,1250z M207.5,1250c0,260,87.5,489.2,262.5,687.5
	c80-156.7,206.7-305.8,380-447.5c173.3-141.7,342.5-230.8,507.5-267.5c-25-58.3-49.2-110.8-72.5-157.5
	c-286.7,91.7-596.7,137.5-930,137.5c-65,0-113.3-0.8-145-2.5c0,6.7-0.4,15-1.3,25C207.9,1235,207.5,1243.3,207.5,1250z M240,992.5
	c36.7,3.3,90.8,5,162.5,5C680.8,997.5,945,960,1195,885c-126.7-225-265.8-412.5-417.5-562.5C645.8,389.2,532.9,481.7,438.8,600
	C344.6,718.3,278.3,849.2,240,992.5z M612.5,2072.5c188.3,146.7,400.8,220,637.5,220c123.3,0,245.8-23.3,367.5-70
	c-33.3-285-98.3-560.8-195-827.5c-153.3,33.3-307.9,117.5-463.8,252.5C802.9,1782.5,687.5,1924.2,612.5,2072.5z M995,242.5
	c146.7,151.7,282.5,340.8,407.5,567.5c226.7-95,397.5-215.8,512.5-362.5c-193.3-160-415-240-665-240
	C1165,207.5,1080,219.2,995,242.5z M1492.5,987.5c25,53.3,53.3,120.8,85,202.5c123.3-11.7,257.5-17.5,402.5-17.5
	c103.3,0,205.8,2.5,307.5,7.5c-13.3-226.7-95-428.3-245-605C1934.2,736.7,1750.8,874.2,1492.5,987.5z M1640,1365
	c85,246.7,142.5,500,172.5,760c131.7-85,239.2-194.2,322.5-327.5c83.3-133.3,133.3-277.5,150-432.5
	c-121.7-8.3-232.5-12.5-332.5-12.5C1860.8,1352.5,1756.7,1356.7,1640,1365z"/>
</svg>
